<svg id="Calque_1" data-name="Calque 1" xmlns="http://www.w3.org/2000/svg" xmlns:xlink="http://www.w3.org/1999/xlink" viewBox="0 0 877.2731 345.09937"><defs><radialGradient id="Dégradé_sans_nom_28" cx="447.95237" cy="832.18029" fx="600.6927921874083" fy="755.1901249178828" r="255.0581" gradientTransform="translate(-267.68309 -664.0122) scale(1.82021 1.66851)" gradientUnits="userSpaceOnUse"><stop offset="0" stop-color="#4f304e" stop-opacity="0.96356"/><stop offset="0.95358" stop-color="#4f304e" stop-opacity="0"/></radialGradient><radialGradient id="Dégradé_sans_nom_25" cx="464.96701" cy="839.16663" fx="523.8238034443318" fy="790.0147988204354" r="76.68132" gradientTransform="translate(-267.68309 -664.0122) scale(1.82021 1.66851)" gradientUnits="userSpaceOnUse"><stop offset="0" stop-color="#4f304e" stop-opacity="0.96356"/><stop offset="0.85607" stop-color="#4f304e" stop-opacity="0"/></radialGradient><radialGradient id="Dégradé_sans_nom_24" cx="633.81291" cy="853.68887" fx="618.0197012618047" fy="788.7725236487689" r="103.20028" gradientTransform="translate(-267.68309 -664.0122) scale(1.82021 1.66851)" gradientUnits="userSpaceOnUse"><stop offset="0" stop-color="#4f304e" stop-opacity="0.96356"/><stop offset="0.73874" stop-color="#4f304e" stop-opacity="0"/></radialGradient></defs><path d="M806.5013,553.97571c-5.50586,8.87753-15.19207,21.42154-31.42313,29.79751-31.71966,16.36874-76.24381,22.99955-91.13748,19.42636-37.32772-8.95523-94.11421-24.07221-223.09434-21.41281-115.046,2.372-155.23738,17.1089-179.87059,28.80428a287.80838,287.80838,0,0,0-63.92992,41.71664c-55.95509,48.28754-72.76391,101.7401-86.68459,146.00809-13.87225,44.114-10.56839,61.39124-2.16712,73.5007,10.57028,15.23584,32.7067,27.33145,41.17518,21.85155,4.51882-2.92413,3.53761-10.62538,0-30.79079-5.96824-34.02074-9.86536-50.42777-10.83557-56.61545-6.303-40.19915,43.4149-79.66241,60.67922-93.36574,75.12322-59.62843,171.19962-47.38668,183.12134-45.68955,34.00159,4.84026,42.43674,13.54528,82.35036,26.81783.00023.0001,96.58046,32.116,206.9595,24.83128,141.13-9.31421,244.38743-93.3576,282.80857-128.1296" transform="translate(-120.91971 -553.97571)" style="opacity:0.7;fill:url(#Dégradé_sans_nom_28)"/><path d="M572.356,649.46519c-14.22786,15.50647,18.94483,40.9831,6.44341,83.8722-5.63618,19.3364-23.3366,51.75084-51.54793,57.88353-11.12981,2.41947-20.3252-.0279-29.64014,7.08783-10.12116,7.73155-15.73556,23.20248-10.30958,29.53243,9.66533,11.27561,56.05735-4.4765,86.34286-21.26338,55.63641-30.83861,115.32886-97.54661,94.0751-135.84923C651.26849,641.08076,588.32323,632.0631,572.356,649.46519Z" transform="translate(-120.91971 -553.97571)" style="opacity:0.7;fill:url(#Dégradé_sans_nom_25)"/><path d="M876.48912,624.658c13.74893,7.75028,4.66808,25.374,12.887,55.521,16.22428,59.5106,71.16167,62.55189,97.94117,129.94272,7.11721,17.91057,18.28724,46.02011,3.86607,66.15268-18.89517,26.37835-73.4415,27.501-109.53949,15.35688-89.20105-30.00913-136.7296-164.90658-88.92031-229.1717C813.57063,634.437,857.09635,613.72624,876.48912,624.658Z" transform="translate(-120.91971 -553.97571)" style="opacity:0.7;fill:url(#Dégradé_sans_nom_24)"/></svg>