<?xml version="1.0" encoding="UTF-8"?>
<svg width="1000px" height="1000px" viewBox="0 0 1000 1000" xmlns="http://www.w3.org/2000/svg" xmlns:xlink="http://www.w3.org/1999/xlink" version="1.1">
 <!-- Generated by Pixelmator Pro 2.1.2 -->
 <g id="Calque_2">
  <path id="Tracé" d="M1000 500 C1000 776.142 776.142 1000 500 1000 223.858 1000 -0 776.142 -0 500 -0 223.858 223.858 0 500 0 776.142 0 1000 223.858 1000 500 Z" fill="#ffffff" fill-opacity="1" stroke="none"/>
  <path id="Tracé-1" d="M362.345 230.048 C362.345 230.048 436.429 214.514 501 214.414 567.296 214.314 639.655 230.048 639.655 230.048 639.655 230.048 568.094 258.964 501 258.964 425.49 258.924 362.345 230.048 362.345 230.048 Z" fill="#af222f" fill-opacity="1" stroke="none"/>
  <path id="Tracé-2" d="M302.669 160.521 C302.603 160.521 302.55 160.468 302.55 160.402 302.55 160.336 302.603 160.282 302.669 160.282 311.274 159.046 411.8 144.817 499.943 144.718 590.409 144.628 688.782 159.006 697.207 160.272 697.273 160.272 697.327 160.326 697.327 160.392 697.327 160.458 697.273 160.511 697.207 160.511 688.931 162.805 591.516 189.228 499.933 189.228 408.61 189.238 311.005 162.825 302.669 160.521 Z" fill="none" stroke="#231f20" stroke-width="4.985" stroke-opacity="1" stroke-linejoin="round" stroke-linecap="round"/>
  <path id="Tracé-3" d="M471.676 391.327 C475.315 400.84 489.952 420.193 499.943 420.193 509.934 420.193 524.471 404.559 528.211 391.327 530.304 383.899 538.042 370.389 541.871 363.728 549.718 350.088 567.286 323.974 576.559 311.301 591.177 291.3 635.806 234.456 639.376 229.859 639.423 229.82 639.434 229.752 639.4 229.701 639.367 229.65 639.301 229.632 639.246 229.659 632.516 231.494 533.944 258.116 499.764 258.116 465.583 258.116 367.061 231.464 360.311 229.66 360.26 229.651 360.209 229.673 360.181 229.717 360.152 229.76 360.153 229.816 360.181 229.859 363.282 233.777 396.286 275.605 407.403 290.203 416.686 302.387 434.813 327.185 442.969 340.147 450.757 352.561 465.354 374.776 471.676 391.327 Z" fill="#be1e2d" fill-opacity="1" stroke="none"/>
  <path id="Tracé-4" d="M358.626 824.383 C415.859 810.992 455.782 811.331 471.676 795.467 506.344 760.968 477.05 642.514 471.676 593.378 466.052 541.928 490.261 439.457 471.676 391.288 447.207 327.923 309.489 168.877 302.38 160.671 302.333 160.632 302.322 160.564 302.356 160.513 302.389 160.462 302.455 160.444 302.51 160.472 309.489 162.576 403.614 190.434 499.933 189.218 600.25 187.941 690.576 162.426 697.357 160.462 697.411 160.434 697.478 160.452 697.511 160.503 697.544 160.554 697.533 160.622 697.486 160.661 690.417 168.757 551.981 327.634 528.191 391.308 510.113 439.676 531.92 541.768 528.191 593.397 524.591 643.052 498.856 755.724 528.191 795.487 539.956 811.441 573.229 810.693 641.241 824.403 658.45 829.169 651.112 835.062 641.241 838.831 613.322 853.787 539.538 854.635 499.923 855.881 467.618 856.878 384.999 857.875 358.606 838.831 355.854 836.827 342.892 828.062 358.626 824.383 Z" fill="none" stroke="#231f20" stroke-width="4.985" stroke-opacity="1" stroke-linejoin="round" stroke-linecap="round"/>
  <path id="Tracé-5" d="M471.676 795.507 C471.676 795.507 489.952 765.814 499.943 765.814 509.934 765.814 528.211 795.507 528.211 795.507" fill="none" stroke="#231f20" stroke-width="4.985" stroke-opacity="1" stroke-linejoin="round" stroke-linecap="round"/>
  <path id="Tracé-6" d="M471.676 558.798 C471.676 558.798 489.952 587.714 499.943 587.714 509.934 587.714 528.211 558.798 528.211 558.798" fill="none" stroke="#231f20" stroke-width="4.985" stroke-opacity="1" stroke-linejoin="round" stroke-linecap="round"/>
  <path id="Tracé-7" d="M471.676 594.923 C471.676 594.923 489.952 565.22 499.943 565.22 509.934 565.22 528.211 594.923 528.211 594.923" fill="none" stroke="#231f20" stroke-width="4.985" stroke-opacity="1" stroke-linejoin="round" stroke-linecap="round"/>
  <path id="Tracé-8" d="M471.536 391.327 C471.536 391.327 485.745 420.193 499.803 420.193 516.933 420.193 528.061 391.327 528.061 391.327" fill="none" stroke="#231f20" stroke-width="4.985" stroke-opacity="1" stroke-linejoin="round" stroke-linecap="round"/>
 </g>
</svg>
